<?xml version="1.0" encoding="UTF-8"?>
<svg id="Logo" xmlns="http://www.w3.org/2000/svg" version="1.1" viewBox="0 0 427.4 86.5">
  <defs>
    <style>
      .cls-1 {
        fill: #eccc00;
      }

      .cls-1, .cls-2 {
        stroke-width: 0px;
      }

      .cls-2 {
        fill: #fff;
      }
    </style>
  </defs>
  <rect class="cls-1" x="362.2" y="66.5" width="50.9" height="5.8"/>
  <g>
    <path class="cls-2" d="M14.2,72.3V14.4h28.3c3.9,0,7.2.7,9.7,2.2,2.6,1.5,4.5,3.5,5.7,6.1,1.3,2.6,1.9,5.5,1.9,8.9s-.7,6.5-2.2,9.2c-1.5,2.7-3.5,4.8-6.1,6.3-2.6,1.5-5.6,2.2-8.9,2.2h-21.8v22.9h-6.7ZM20.9,43.6h21.3c3.3,0,5.9-1.1,7.9-3.2,2-2.1,3-5,3-8.7s-.4-4.5-1.2-6.2c-.8-1.7-2-3-3.7-4-1.6-.9-3.7-1.4-6.1-1.4h-21.3v23.4Z"/>
    <path class="cls-2" d="M102.5,73.3c-4.8,0-9-.8-12.4-2.3-3.5-1.5-6.1-4-8-7.5-1.9-3.4-2.8-7.9-2.8-13.3V14.4h6.7v37.1c0,5.3,1.4,9.3,4.3,12,2.9,2.6,7,4,12.2,4s9.5-1.3,12.5-4c3-2.6,4.5-6.6,4.5-12V14.4h6.6v35.8c0,5.5-.9,9.9-2.8,13.3-1.9,3.4-4.6,5.9-8.1,7.5-3.5,1.5-7.7,2.3-12.7,2.3Z"/>
    <path class="cls-2" d="M150.7,72.3V14.4h6.7v52h28.6v5.8h-35.3Z"/>
    <path class="cls-2" d="M224.9,73.3c-3.1,0-6.1-.3-9-.8-2.9-.6-5.5-1.5-7.8-2.9-2.2-1.3-4-3.1-5.3-5.3-1.3-2.2-1.9-4.9-1.9-8.2v-.8c0-.3,0-.5,0-.8h6.7c0,.2,0,.5,0,.9,0,.4,0,.7,0,1,0,2.5.7,4.5,2.2,6.2,1.5,1.7,3.5,2.9,6.1,3.7,2.6.8,5.4,1.2,8.6,1.2s2.3,0,3.8-.2c1.5-.1,3-.4,4.6-.8,1.5-.4,3-1,4.3-1.8,1.3-.8,2.3-1.7,3.2-3,.8-1.2,1.2-2.7,1.2-4.5s-.6-3.8-1.7-5.1c-1.1-1.3-2.6-2.5-4.4-3.3-1.8-.9-3.9-1.6-6.3-2.3-2.4-.7-4.8-1.3-7.3-1.9-2.5-.6-4.9-1.3-7.2-2.1-2.3-.8-4.4-1.8-6.3-3-1.9-1.2-3.3-2.7-4.4-4.4-1.1-1.8-1.6-3.9-1.6-6.5s.4-4.3,1.3-6.2c.9-1.9,2.3-3.4,4.1-4.8,1.9-1.3,4.2-2.3,7.1-3.1,2.9-.7,6.3-1.1,10.2-1.1s5.8.3,8.3.9c2.6.6,4.9,1.6,6.8,2.9,2,1.3,3.5,3,4.6,5,1.1,2,1.6,4.4,1.6,7.2v1h-6.6v-1.4c0-2.1-.6-3.8-1.9-5.3-1.3-1.4-3-2.6-5.2-3.4-2.2-.8-4.6-1.2-7.4-1.2s-6.9.4-9.3,1.1c-2.4.8-4.2,1.8-5.4,3.1-1.2,1.3-1.8,2.8-1.8,4.4s.6,3.5,1.7,4.8c1.1,1.3,2.6,2.3,4.5,3.1,1.9.8,3.9,1.5,6.3,2.2,2.3.6,4.7,1.3,7.2,1.9,2.5.6,4.9,1.3,7.2,2.2,2.3.8,4.4,1.8,6.3,3,1.9,1.2,3.4,2.7,4.5,4.5,1.1,1.8,1.6,4,1.6,6.7,0,4-1,7.3-3,9.8-2,2.5-4.7,4.4-8.2,5.6-3.5,1.2-7.5,1.8-12.1,1.8Z"/>
    <path class="cls-2" d="M270,72.3V14.4h6.7v57.9h-6.7Z"/>
    <path class="cls-2" d="M294.2,72.3l23-57.9h8.9l23.1,57.9h-7.2l-6.1-15.3h-29l-6,15.3h-6.8ZM309.3,51.3h24.5l-7.6-19.3c-.2-.4-.4-1.1-.8-2-.3-.9-.7-1.9-1.1-3.1-.4-1.2-.8-2.3-1.3-3.5-.4-1.2-.8-2.2-1.2-3.2h-.6c-.3,1.1-.8,2.3-1.3,3.8-.5,1.5-1.1,2.9-1.6,4.3-.5,1.4-1,2.7-1.4,3.7l-7.6,19.3Z"/>
  </g>
</svg>